<?xml version="1.0" encoding="UTF-8" standalone="no"?>
<!-- Created with Inkscape (http://www.inkscape.org/) -->

<svg
   width="29"
   height="29"
   viewBox="0 0 7.6729166 7.6729168"
   version="1.1"
   id="svg506"
   inkscape:version="1.1.2 (0a00cf5339, 2022-02-04)"
   sodipodi:docname="man.svg"
   xmlns:inkscape="http://www.inkscape.org/namespaces/inkscape"
   xmlns:sodipodi="http://sodipodi.sourceforge.net/DTD/sodipodi-0.dtd"
   xmlns="http://www.w3.org/2000/svg"
   xmlns:svg="http://www.w3.org/2000/svg">
  <sodipodi:namedview
     id="namedview508"
     pagecolor="#ffffff"
     bordercolor="#666666"
     borderopacity="1.0"
     inkscape:pageshadow="2"
     inkscape:pageopacity="0.0"
     inkscape:pagecheckerboard="0"
     inkscape:document-units="px"
     showgrid="false"
     units="px"
     height="29px"
     inkscape:zoom="14.795286"
     inkscape:cx="15.917232"
     inkscape:cy="15.68067"
     inkscape:window-width="1366"
     inkscape:window-height="695"
     inkscape:window-x="0"
     inkscape:window-y="0"
     inkscape:window-maximized="1"
     inkscape:current-layer="layer1" />
  <defs
     id="defs503" />
  <g
     inkscape:label="Слой 1"
     inkscape:groupmode="layer"
     id="layer1">
    <path
       d="M 3.8364583,5.2749979 C 5.0270833,5.2749979 5.9944,4.0915166 5.9944,2.6373666 5.9944,1.1832167 5.0270833,0 3.8364583,0 3.5356535,0.0057524 3.2401669,0.0802741 2.9726202,0.2178571 2.7050736,0.3554386 2.4725577,0.5524341 2.2928792,0.79375 1.8855796,1.3217869 1.6690446,1.9721539 1.6785167,2.6389541 c 0,1.4528271 0.9673166,2.6360438 2.1579416,2.6360438 z m 0,-4.7953083 c 0.9260417,0 1.6785167,0.9681104 1.6785167,2.1579416 0,1.1898313 -0.7530042,2.1579417 -1.6785167,2.1579417 -0.9255125,0 -1.6785166,-0.968375 -1.6787812,-2.1579417 C 2.1574125,1.4480646 2.9104167,0.4796896 3.8364583,0.4796896 Z M 5.514975,4.7955729 c -0.063606,0 -0.1246188,0.025268 -0.1695979,0.070247 -0.044979,0.044979 -0.070247,0.1059921 -0.070247,0.1695979 0,0.063606 0.025268,0.1246188 0.070247,0.169598 0.044979,0.044979 0.105992,0.070247 0.1695979,0.070247 0.4450291,5.027e-4 0.8716962,0.1774825 1.1863652,0.4921779 0.3146689,0.314669 0.4916487,0.7413096 0.4921514,1.1863388 -1.323e-4,0.063526 -0.025453,0.1244335 -0.070379,0.1693598 -0.044926,0.0449 -0.1058069,0.07022 -0.1693334,0.070353 H 0.71966671 C 0.65611381,7.1933593 0.59523321,7.1680387 0.55033341,7.1231389 0.50540711,7.0782126 0.4800865,7.0173055 0.4799542,6.9537791 0.4805098,6.5087764 0.65754251,6.0821622 0.97218501,5.7675197 1.286854,5.4528508 1.7134682,5.2758181 2.1584709,5.2752624 c 0.063553,0 0.1245393,-0.025268 0.169492,-0.07022 0.044953,-0.044953 0.07022,-0.1059127 0.07022,-0.1694921 0,-0.063579 -0.025268,-0.1245393 -0.07022,-0.169492 C 2.2830099,4.8211053 2.2220238,4.7958373 2.1584709,4.7958373 1.5862829,4.79634 1.0376959,5.0237759 0.63304211,5.4282973 0.2283619,5.8328188 6.88e-4,6.3813529 0,6.9535144 2.117e-4,7.1442525 0.076068,7.3271061 0.2109259,7.4619642 0.3458105,7.5968485 0.52866401,7.6727045 0.71940211,7.6729165 H 6.9537791 C 7.1444643,7.6726255 7.327265,7.5967435 7.4620702,7.4618849 7.5968756,7.3270268 7.6727046,7.1441997 7.6729166,6.9535145 7.6722286,6.381406 7.4446341,5.8329247 7.0401127,5.4284033 6.6355648,5.0238554 6.0870835,4.7962608 5.514975,4.7955729 Z"
       fill="#e8e8e8"
       id="path197"
       style="stroke-width:0.264583" />
  </g>
</svg>
