<?xml version="1.0" encoding="UTF-8" standalone="no"?>
<!-- Created with Inkscape (http://www.inkscape.org/) -->

<svg
   width="32"
   height="29"
   viewBox="0 0 8.4666665 7.672917"
   version="1.1"
   id="svg566"
   inkscape:version="1.1.2 (0a00cf5339, 2022-02-04)"
   sodipodi:docname="trolley.svg"
   xmlns:inkscape="http://www.inkscape.org/namespaces/inkscape"
   xmlns:sodipodi="http://sodipodi.sourceforge.net/DTD/sodipodi-0.dtd"
   xmlns="http://www.w3.org/2000/svg"
   xmlns:svg="http://www.w3.org/2000/svg">
  <sodipodi:namedview
     id="namedview568"
     pagecolor="#ffffff"
     bordercolor="#666666"
     borderopacity="1.0"
     inkscape:pageshadow="2"
     inkscape:pageopacity="0.0"
     inkscape:pagecheckerboard="0"
     inkscape:document-units="mm"
     showgrid="false"
     units="px"
     height="29px"
     inkscape:zoom="14.795286"
     inkscape:cx="14.633039"
     inkscape:cy="15.004779"
     inkscape:window-width="1366"
     inkscape:window-height="695"
     inkscape:window-x="0"
     inkscape:window-y="0"
     inkscape:window-maximized="1"
     inkscape:current-layer="layer1" />
  <defs
     id="defs563" />
  <g
     inkscape:label="Слой 1"
     inkscape:groupmode="layer"
     id="layer1">
    <path
       d="M 6.9333208,7.6729173 C 6.7618468,7.6659873 6.6001631,7.5921663 6.4824076,7.4672566 6.3649161,7.3423469 6.3008781,7.1763473 6.3043176,7.0048444 6.3080181,6.8333679 6.378411,6.6700671 6.5009312,6.5499992 6.6234504,6.4299577 6.7883085,6.3627006 6.9597825,6.3627006 c 0.1714741,0 0.3363322,0.067257 0.4588524,0.1872986 0.1225192,0.1200679 0.192908,0.2833687 0.1963475,0.4548452 0.0037,0.1715029 -0.060338,0.3375025 -0.1778249,0.4624122 C 7.319402,7.5921664 7.1577183,7.6659852 6.9862442,7.6729173 Z M 1.7869821,6.9638339 c 0,-0.1402291 0.041546,-0.2773362 0.1196084,-0.3939381 0.077798,-0.1166018 0.1886744,-0.2074862 0.3180738,-0.2611702 0.129664,-0.053657 0.2722944,-0.067707 0.409897,-0.040349 0.1376027,0.027358 0.2638266,0.094906 0.3630594,0.1940718 0.099233,0.099166 0.1667109,0.2255044 0.1942313,0.3630613 C 3.219108,6.9630401 3.205083,7.1056241 3.151365,7.2351905 3.0976478,7.364757 3.0068826,7.4755115 2.8901849,7.5534049 2.7734873,7.6313249 2.6364139,7.6729172 2.4961651,7.6729172 2.4030191,7.6729965 2.3106661,7.6546872 2.2246645,7.6191012 2.138398,7.5834881 2.060335,7.5312594 1.9944446,7.465431 1.928554,7.3995762 1.8761592,7.3213654 1.8404355,7.2353229 1.8047116,7.1492539 1.7864529,7.0569937 1.7864529,6.9638339 Z M 2.7925398,5.4731715 C 2.7240031,5.4733831 2.6570541,5.4510523 2.6022777,5.4095921 2.5475012,5.3681583 2.5080728,5.3098971 2.4895494,5.2437777 L 1.2106387,0.62547834 H 0.31278157 c -0.0828266,0 -0.16247699,-0.032951 -0.22122273,-0.091599 C 0.03307764,0.47522934 0,0.39568214 0,0.31274054 0,0.22979654 0.03307764,0.15025014 0.09155884,0.09160054 0.15030508,0.03295054 0.22995536,1.5372296e-6 0.31278157,1.5372296e-6 H 1.4456217 C 1.5144233,-2.1356277e-4 1.5811074,0.02215054 1.6358839,0.06365054 c 0.054512,0.041499 0.094205,0.099831 0.1124636,0.1660096 L 3.0272581,4.8479606 h 3.487168 L 7.6742577,2.1894299 H 3.8107988 c -0.041806,0.00122 -0.083622,-0.00598 -0.1225192,-0.021151 -0.039166,-0.015176 -0.074622,-0.038029 -0.1047893,-0.067201 -0.029902,-0.029173 -0.053717,-0.064074 -0.070125,-0.1026398 -0.016406,-0.038566 -0.024609,-0.08001 -0.024609,-0.1218803 0,-0.041868 0.0082,-0.083312 0.024609,-0.1218777 0.016406,-0.038566 0.040223,-0.073467 0.070125,-0.1026398 0.030166,-0.029173 0.065626,-0.052025 0.1047893,-0.067201 0.038896,-0.015174 0.080711,-0.022365 0.1225192,-0.021148 H 8.154015 c 0.051867,-1.32e-5 0.1026724,0.012872 0.1481868,0.037494 0.045776,0.024622 0.084412,0.060203 0.1127288,0.1035288 0.028584,0.043466 0.045777,0.093313 0.050537,0.1451081 0.0045,0.051795 -0.0037,0.1039257 -0.024083,0.1517518 L 7.0111107,5.2855823 c -0.024343,0.055721 -0.064569,0.1031346 -0.1156392,0.1364456 -0.050807,0.033311 -0.1103465,0.051091 -0.171209,0.051144 z"
       fill="#e8e8e8"
       id="path199"
       style="stroke-width:0.264602" />
  </g>
</svg>
